<svg width="24" height="24" viewBox="0 0 24 24"  xmlns="http://www.w3.org/2000/svg">
<path fill-rule="evenodd" clip-rule="evenodd" d="M4 17.8026H4.39627C4.6759 17.8026 4.89997 17.7949 5.07949 17.7768L4 17.7666V17.8026Z" />
<path fill-rule="evenodd" clip-rule="evenodd" d="M4 6.02226V6.0001L12.8545 6.02226C15.4483 6.02226 17.4837 7.51729 17.4837 9.2645C17.4837 10.6515 16.0967 11.7862 14.3135 12.2005C15.2813 12.4645 15.7506 12.9347 15.9565 13.141L15.9706 13.1552C16.5012 13.7034 16.5803 14.2691 16.7023 15.1419L16.7091 15.1906C16.7632 15.6409 16.8713 16.4154 16.8893 16.5415C17.0334 17.4962 17.2135 18.3428 18.0421 18.3428C18.6185 18.3428 19.1408 17.8564 19.2309 16.7757L19.2337 16.7467C19.2494 16.5841 19.2588 16.4875 19.429 16.4875C19.6272 16.4875 19.6272 16.6496 19.6272 16.7577C19.6272 17.1359 19.393 18.703 17.988 18.703C16.9793 18.703 16.2228 18.2887 15.9526 18.0186C15.1601 17.244 15.1601 16.7757 15.1601 15.3527C15.1601 14.1099 15.1601 13.7316 14.5476 13.0471C14.0613 12.5428 13.3948 12.3446 12.6924 12.3446H10.6029V16.9558C10.6029 17.6223 10.657 17.8024 11.9539 17.8024H12.3141V18.3248C11.8998 18.2887 10.4048 18.2887 9.88242 18.2887C9.77288 18.2887 9.46843 18.2872 9.05242 18.285C7.4822 18.2768 4.32691 18.2603 4 18.2887V18.207V17.8024H4.39627C4.6759 17.8024 4.89997 17.7947 5.07949 17.7765C5.76726 17.707 5.80125 17.4843 5.80125 16.9558V7.39121C5.80125 6.72475 5.74721 6.54462 4.39627 6.54462H4V6.52246V6.02226ZM8.23862 17.7944C9.13791 17.753 9.17993 17.5435 9.17993 16.9558V7.39121C9.17993 6.80349 9.13791 6.59398 8.23862 6.55267C7.30228 6.59398 7.26025 6.80349 7.26025 7.39121V16.9558C7.26025 17.5435 7.30228 17.753 8.23862 17.7944ZM15.8085 9.2645C15.8085 10.8316 14.9619 11.9844 12.6203 11.9844H10.6029V7.26512C10.6029 6.85083 10.6029 6.63468 10.9812 6.56263C11.1433 6.54462 11.6837 6.54462 12.0439 6.54462C13.5029 6.54462 15.8085 6.54462 15.8085 9.2645Z" />
</svg>
